<?xml version="1.0" encoding="utf-8"?>
<!-- Generator: Adobe Illustrator 23.0.3, SVG Export Plug-In . SVG Version: 6.00 Build 0)  -->
<svg version="1.1" id="Layer_1" xmlns="http://www.w3.org/2000/svg" xmlns:xlink="http://www.w3.org/1999/xlink" x="0px" y="0px"
	 viewBox="0 0 155.66 30.86" style="enable-background:new 0 0 155.66 30.86;" xml:space="preserve">
<style type="text/css">
	.st0{fill:#6400E5;}
	.st1{fill-rule:evenodd;clip-rule:evenodd;fill:#6400E5;}
	.st2{fill:#FFFFFF;}
</style>
<g>
	<g>
		<path class="st0" d="M626.36-23.57c3.22,0,3.22-5,0-5C623.14-28.57,623.13-23.57,626.36-23.57L626.36-23.57z"/>
	</g>
</g>
<g>
	<g id="Page-1_7_">
		<g id="OPTION-6_7_" transform="translate(-367.000000, -203.000000)">
			<g id="Group_7_" transform="translate(367.000000, 203.000000)">
				<g id="Group-2_7_" transform="translate(-0.000000, 0.600000)">
					<path id="Shape_7_" class="st1" d="M46.05,8.08h-7.96l-6.6,10.53V-0.6h-6.75v30.35h5.91l4.3-6.05l4.3,6.05h8.65l-8.96-11.66
						L46.05,8.08z M56.53,7.55c-6.24,0-11.3,5.08-11.3,11.35s5.06,11.35,11.3,11.35s11.3-5.08,11.3-11.35
						C67.84,12.63,62.78,7.55,56.53,7.55z M56.53,23.73c-2.5,0-4.52-2.02-4.52-4.81s2.02-4.83,4.52-4.83c2.5,0,4.52,2.03,4.52,4.83
						C61.05,21.7,59.03,23.73,56.53,23.73z M11.3,7.55C5.06,7.55,0,12.63,0,18.9s5.06,11.35,11.3,11.35c4.84,0,8.96-3.05,10.57-7.35
						H15c-0.71,0.85-1.62,1.44-3.65,1.44c-2.11,0-3.82-1.12-4.59-3.31H22.4c0.13-0.69,0.2-1.41,0.2-2.14
						C22.6,12.63,17.54,7.55,11.3,7.55z M6.76,16.77c0.72-2.04,2.48-3.26,4.53-3.26s3.82,1.22,4.53,3.26H6.76z"/>
				</g>
			</g>
		</g>
	</g>
	<g>
		<path class="st2" d="M82.15,20.65h-5.73c0.11,1.21,0.89,1.73,1.73,1.73c0.66,0,1.2-0.31,1.39-0.89h2.5
			c-0.54,1.94-2.19,2.76-3.89,2.76c-2.52,0-4.2-1.79-4.2-4.12c0-2.33,1.7-4.12,4.15-4.12C80.7,16.02,82.4,18.06,82.15,20.65z
			 M76.49,19.18h3.13c-0.16-0.76-0.67-1.29-1.54-1.29C77.21,17.89,76.69,18.42,76.49,19.18z"/>
		<path class="st2" d="M90.44,19.15v4.92h-2.43v-4.38c0-0.86-0.26-1.36-1.24-1.36c-0.96,0-1.44,0.47-1.44,1.56v4.17H82.9V16.2h2.43
			v0.89c0.57-0.7,1.3-1.07,2.27-1.07C89.37,16.02,90.44,17.23,90.44,19.15z"/>
		<path class="st2" d="M99.44,16.2v7.75c0,2.33-1.56,3.88-3.96,3.88c-1.92,0-3.79-0.94-4.05-3.12h2.5c0.19,0.79,0.81,0.96,1.47,0.96
			c1.06,0,1.6-0.5,1.6-1.63v-0.96c-0.52,0.61-1.23,1.03-2.23,1.03c-2,0-3.55-1.69-3.55-4.05c0-2.37,1.57-4.05,3.55-4.05
			c0.99,0,1.73,0.43,2.23,1.06V16.2H99.44z M97.01,20.06c0-1.02-0.71-1.73-1.66-1.73c-0.94,0-1.66,0.72-1.66,1.73
			c0,1.03,0.73,1.73,1.66,1.73C96.29,21.79,97.01,21.09,97.01,20.06z"/>
		<path class="st2" d="M103.12,13.87c0,0.81-0.61,1.4-1.47,1.4c-0.83,0-1.47-0.59-1.47-1.4c0-0.8,0.64-1.39,1.47-1.39
			C102.51,12.48,103.12,13.07,103.12,13.87z M100.44,16.2h2.43v7.86h-2.43V16.2z"/>
		<path class="st2" d="M111.42,19.15v4.92h-2.43v-4.38c0-0.86-0.26-1.36-1.24-1.36c-0.96,0-1.44,0.47-1.44,1.56v4.17h-2.43V16.2
			h2.43v0.89c0.57-0.7,1.3-1.07,2.27-1.07C110.34,16.02,111.42,17.23,111.42,19.15z"/>
		<path class="st2" d="M120.41,20.65h-5.73c0.11,1.21,0.89,1.73,1.73,1.73c0.66,0,1.2-0.31,1.39-0.89h2.5
			c-0.54,1.94-2.19,2.76-3.89,2.76c-2.52,0-4.2-1.79-4.2-4.12c0-2.33,1.7-4.12,4.15-4.12C118.95,16.02,120.65,18.06,120.41,20.65z
			 M114.75,19.18h3.13c-0.16-0.76-0.67-1.29-1.54-1.29S114.95,18.42,114.75,19.18z"/>
		<path class="st2" d="M129.21,20.65h-5.73c0.11,1.21,0.89,1.73,1.73,1.73c0.66,0,1.2-0.31,1.39-0.89h2.5
			c-0.54,1.94-2.19,2.76-3.89,2.76c-2.52,0-4.2-1.79-4.2-4.12c0-2.33,1.7-4.12,4.15-4.12C127.76,16.02,129.46,18.06,129.21,20.65z
			 M123.55,19.18h3.13c-0.16-0.76-0.67-1.29-1.54-1.29C124.27,17.89,123.75,18.42,123.55,19.18z"/>
		<path class="st2" d="M135.12,16.06v2.5c-0.16-0.01-0.26-0.03-0.49-0.03c-1.14,0-2.24,0.34-2.24,2.13v3.4h-2.43V16.2h2.43v1.21
			c0.49-0.96,1.29-1.4,2.29-1.4C134.86,16.02,135,16.03,135.12,16.06z"/>
		<path class="st2" d="M138.38,13.87c0,0.81-0.61,1.4-1.47,1.4c-0.83,0-1.47-0.59-1.47-1.4c0-0.8,0.64-1.39,1.47-1.39
			C137.76,12.48,138.38,13.07,138.38,13.87z M135.69,16.2h2.43v7.86h-2.43V16.2z"/>
		<path class="st2" d="M146.67,19.15v4.92h-2.43v-4.38c0-0.86-0.26-1.36-1.24-1.36c-0.96,0-1.44,0.47-1.44,1.56v4.17h-2.43V16.2
			h2.43v0.89c0.57-0.7,1.3-1.07,2.27-1.07C145.6,16.02,146.67,17.23,146.67,19.15z"/>
		<path class="st2" d="M155.66,16.2v7.75c0,2.33-1.56,3.88-3.96,3.88c-1.92,0-3.79-0.94-4.05-3.12h2.5
			c0.19,0.79,0.81,0.96,1.47,0.96c1.06,0,1.6-0.5,1.6-1.63v-0.96c-0.52,0.61-1.23,1.03-2.23,1.03c-2,0-3.55-1.69-3.55-4.05
			c0-2.37,1.57-4.05,3.55-4.05c0.99,0,1.73,0.43,2.23,1.06V16.2H155.66z M153.23,20.06c0-1.02-0.71-1.73-1.66-1.73
			c-0.94,0-1.66,0.72-1.66,1.73c0,1.03,0.73,1.73,1.66,1.73C152.51,21.79,153.23,21.09,153.23,20.06z"/>
	</g>
</g>
</svg>
